<svg width="100" height="100" viewBox="0 0 100 100" fill="none" xmlns="http://www.w3.org/2000/svg">
<path d="M99.6234 50C99.6234 77.4067 77.4066 99.6234 50 99.6234C22.5933 99.6234 0.37666 77.4067 0.37666 50C0.37666 22.5933 22.5933 0.376648 50 0.376648C77.4066 0.376648 99.6234 22.5933 99.6234 50Z" fill="white"/>
<path d="M93.2369 50.1717C93.2369 73.9891 73.9282 93.2923 50.1163 93.2923C26.3044 93.2923 6.99567 73.9836 6.99567 50.1717C6.99567 26.3598 26.3044 7.05107 50.1163 7.05107C73.9282 7.05107 93.2369 26.3598 93.2369 50.1717Z" fill="#E40520"/>
<path d="M87.8088 50C87.8088 70.8818 70.8818 87.8088 50 87.8088C29.1182 87.8088 12.1912 70.8818 12.1912 50C12.1912 29.1182 29.1182 12.1912 50 12.1912C70.8818 12.1912 87.8088 29.1182 87.8088 50Z" fill="white"/>
<path d="M50 88.1855C39.8028 88.1855 30.2094 84.214 22.9977 77.0023C15.786 69.7906 11.8146 60.2027 11.8146 50C11.8146 39.7973 15.786 30.2094 22.9977 22.9977C30.2094 15.786 39.7973 11.8146 50 11.8146C60.2027 11.8146 69.7906 15.786 77.0023 22.9977C84.214 30.2094 88.1855 39.7973 88.1855 50C88.1855 60.2027 84.214 69.7906 77.0023 77.0023C69.7906 84.214 60.2027 88.1855 50 88.1855ZM50 12.5734C40.0022 12.5734 30.6026 16.4673 23.535 23.535C16.4673 30.6026 12.5734 40.0022 12.5734 50C12.5734 59.9978 16.4673 69.3974 23.535 76.4651C30.6026 83.5327 40.0022 87.4266 50 87.4266C59.9978 87.4266 69.3974 83.5327 76.465 76.4651C83.5327 69.3974 87.4266 59.9978 87.4266 50C87.4266 40.0022 83.5327 30.6026 76.465 23.535C69.3974 16.4673 59.9978 12.5734 50 12.5734Z" fill="#231815"/>
<path d="M50 100C36.6456 100 24.0888 94.7989 14.645 85.355C5.20106 75.9112 0 63.3544 0 50C0 36.6456 5.20106 24.0888 14.645 14.645C24.0888 5.20106 36.6456 0 50 0C63.3544 0 75.9112 5.20106 85.3551 14.645C94.799 24.0888 100 36.6456 100 50C100 63.3544 94.799 75.9112 85.3551 85.355C75.9112 94.7989 63.3544 100 50 100ZM50 0.758835C36.845 0.758835 24.4821 5.88235 15.1822 15.1822C5.88235 24.4821 0.758837 36.8506 0.758837 50C0.758837 63.1494 5.88235 75.5179 15.1822 84.8178C24.4821 94.1176 36.8506 99.2412 50 99.2412C63.1495 99.2412 75.5179 94.1176 84.8178 84.8178C94.1177 75.5179 99.2412 63.1494 99.2412 50C99.2412 36.8506 94.1177 24.4821 84.8178 15.1822C75.5179 5.88235 63.1495 0.758835 50 0.758835Z" fill="#231815"/>
<path d="M16.4451 50.7145L16.7387 53.9603L18.2009 53.8274L17.9738 51.346L18.7438 51.2795L18.9709 53.7554L20.6713 53.6003L20.771 54.7136L16.0685 55.1457L15.6697 50.7865L16.4451 50.7145Z" fill="#231815"/>
<path d="M16.8328 44.8377L16.5559 48.1666L17.7191 48.2608L17.9295 45.7184L18.6828 45.7849L18.4723 48.3217L19.7131 48.4269L19.99 45.098L20.7655 45.1645L20.3944 49.6067L15.6863 49.2135L16.0574 44.7712L16.8328 44.8377Z" fill="#231815"/>
<path d="M19.835 39.9302C20.0676 39.3652 20.483 39.1492 20.9594 39.2822L22.2222 39.6366L21.9287 40.689L20.6436 40.329C20.2227 40.2127 19.9734 40.5727 19.8793 40.9106L19.3752 42.7163L21.2197 43.2314L20.9206 44.3115L16.3731 43.0376L17.2427 39.9357C17.5751 38.756 18.1899 38.4015 18.921 38.6064C19.6466 38.8113 19.8349 39.332 19.7851 39.9136L19.8405 39.9302H19.835ZM19.1592 40.6613C19.3032 40.1407 19.1814 39.8028 18.7382 39.681C18.3782 39.5813 18.0846 39.7585 17.9406 40.2902L17.4144 42.1679L18.6441 42.5114L19.1647 40.6613H19.1592Z" fill="#231815"/>
<path d="M22.4106 34.1919C22.7484 33.6878 23.2026 33.5549 23.6402 33.7765L24.8089 34.3747L24.3104 35.3495L23.1196 34.7402C22.7318 34.5408 22.4161 34.8455 22.2555 35.1556L21.4025 36.8284L23.1085 37.698L22.5989 38.695L18.3948 36.5459L19.8571 33.6768C20.4165 32.5856 21.0923 32.364 21.7625 32.7074C22.4327 33.0508 22.5103 33.5992 22.3496 34.1586L22.405 34.1863L22.4106 34.1919ZM21.6019 34.7735C21.8456 34.2916 21.7902 33.9371 21.3803 33.7266C21.048 33.5549 20.7267 33.6712 20.4775 34.1642L19.5913 35.8979L20.7267 36.4795L21.6019 34.7679V34.7735Z" fill="#231815"/>
<path d="M28.6696 29.013L28.8468 29.157L28.1544 30.0211L27.0688 29.7829L25.2077 32.1092L25.673 33.1173L25.0028 33.9537L24.8256 33.8097L22.8038 29.1459L23.6845 28.0436L28.664 29.013H28.6696ZM24.8532 31.3227L26.2269 29.6056L23.823 29.0905L24.8532 31.3227Z" fill="#231815"/>
<path d="M30.9128 24.5763C31.4224 24.2439 31.8932 24.2993 32.2089 24.6815L33.0453 25.6896L32.2034 26.3875L31.3504 25.3573C31.0734 25.0249 30.6636 25.1745 30.3922 25.4016L28.9465 26.598L30.1706 28.0713L29.3121 28.7859L26.2933 25.1523L28.7693 23.0974C29.7109 22.3164 30.4199 22.3773 30.9073 22.9589C31.3892 23.535 31.2452 24.0722 30.874 24.5264L30.9128 24.5707V24.5763ZM29.9435 24.7868C30.3589 24.4433 30.4475 24.0944 30.154 23.7399C29.9158 23.4519 29.5724 23.4353 29.1514 23.7897L27.6504 25.036L28.4646 26.0164L29.9435 24.7868Z" fill="#231815"/>
<path d="M32.4592 20.58L31.5079 21.1691L33.9955 25.1859L34.9468 24.5968L32.4592 20.58Z" fill="#231815"/>
<path d="M42.1015 18.9487C42.6111 20.3833 41.9797 21.5852 40.1629 22.2278C38.3461 22.8703 37.0998 22.333 36.5902 20.8984C36.0917 19.486 36.7731 18.2563 38.5344 17.6304C40.2958 17.0045 41.603 17.5307 42.1015 18.9432M41.0103 19.3254C40.6558 18.3173 39.9025 18.0071 38.8058 18.3948C37.7147 18.7825 37.3269 19.4971 37.6814 20.5052C38.0414 21.5188 38.8335 21.8234 39.8859 21.4468C40.9383 21.0757 41.3648 20.339 41.0048 19.3254" fill="#231815"/>
<path d="M50.4099 20.3334L48.9975 20.4498L47.3025 16.9602L46.1892 20.6769L44.7768 20.7876L42.6443 16.2236L43.8186 16.1294L45.4802 19.7629L45.6132 19.7519L46.6822 15.8968L47.7512 15.8137L49.4628 19.4417L49.5846 19.4306L50.6037 15.581L51.7835 15.4869L50.4099 20.3334Z" fill="#231815"/>
<path d="M57.5995 21.3415L56.4972 21.1477L54.2373 17.3092L53.6502 20.6492L52.6753 20.4775L53.4951 15.8247L54.6416 16.0297L56.8739 19.7851L57.4499 16.5227L58.4136 16.6888L57.5995 21.3415Z" fill="#231815"/>
<path d="M64.2794 19.6189L61.161 18.4114L60.7456 19.4971L63.1218 20.4165L62.8448 21.1255L60.4686 20.2061L60.02 21.3637L63.1328 22.5712L62.8559 23.2968L58.6961 21.6849L60.4022 17.2815L64.5563 18.8933L64.2794 19.6189Z" fill="#231815"/>
<path d="M68.129 23.8784C68.6053 24.2606 68.6939 24.7203 68.4336 25.1412L67.7412 26.2546L66.8162 25.673L67.5252 24.5375C67.7578 24.1664 67.4809 23.8285 67.1873 23.6402L65.5977 22.6432L64.584 24.2661L63.6368 23.6734L66.1405 19.6688L68.8712 21.3748C69.9125 22.0228 70.0731 22.7152 69.6743 23.3577C69.2755 23.9947 68.7216 24.0279 68.1732 23.8174L68.14 23.8673L68.129 23.8784ZM67.6249 23.0254C68.0846 23.3134 68.4391 23.2857 68.6829 22.898C68.8823 22.5823 68.7936 22.2499 68.3228 21.9564L66.6722 20.9261L65.9965 22.0117L67.6249 23.0309V23.0254Z" fill="#231815"/>
<path d="M69.3918 25.6508L70.1894 26.3986C69.8737 26.7974 69.9014 27.235 70.7544 28.0326C71.5299 28.7582 71.9508 28.8191 72.2112 28.5422C72.4881 28.2486 72.405 27.9883 71.5465 27.0245C70.2227 25.5456 70.1618 24.9695 70.7489 24.3436C71.3582 23.6956 72.2555 23.8064 73.4187 24.8975C74.6262 26.033 74.8809 26.8694 74.2163 27.6282L73.402 26.8639C73.6845 26.5038 73.5627 26.1216 72.898 25.4957C72.2112 24.8532 71.829 24.7203 71.5797 24.9862C71.3249 25.2576 71.4025 25.5179 72.3275 26.5758C73.5294 27.9384 73.6956 28.52 73.0642 29.2013C72.3995 29.9047 71.4412 29.7275 70.2282 28.592C68.7715 27.2239 68.6939 26.4374 69.3974 25.6564" fill="#231815"/>
<path d="M77.3624 28.5754L76.3266 29.4173C76.033 29.6555 75.745 29.5779 75.4902 29.2678L75.025 28.6972L75.3185 28.4535L75.6231 28.8246C75.7561 28.9853 75.8447 29.0019 76.0275 28.8523L76.1493 28.7526L75.8392 28.376L76.6534 27.7113L77.3568 28.5754H77.3624Z" fill="#231815"/>
<path d="M79.0905 37.903C77.9661 38.4735 76.9192 37.8808 76.1327 36.3853C75.2631 34.7347 75.5345 33.433 76.9912 32.6631C78.2873 31.9818 79.5668 32.4471 80.4143 34.0589C81.3227 35.7815 81.0236 36.7896 80.021 37.3546L79.4893 36.3465C80.0986 35.9865 80.1318 35.344 79.6831 34.4965C79.1514 33.4884 78.4424 33.2281 77.534 33.71C76.5481 34.2306 76.3709 34.9729 76.9137 36.0031C77.3346 36.8007 77.9328 37.2051 78.5587 36.8949L79.0905 37.903Z" fill="#231815"/>
<path d="M78.7803 40.4232L79.6887 43.4142L78.9465 43.6413L77.7113 39.5757L82.2311 38.2021L82.5523 39.2711L78.7803 40.4232Z" fill="#231815"/>
<path d="M81.5664 48.8756C80.1706 49.0362 79.4782 48.3937 79.2677 46.5825C79.0683 44.8432 79.5779 44.0235 80.9516 43.8629L83.7432 43.5416L83.8706 44.6549L81.1732 44.9651C80.3423 45.0593 79.9933 45.447 80.1152 46.4939C80.2371 47.5518 80.6525 47.8564 81.5443 47.7567L84.1863 47.4521L84.3137 48.5654L81.5609 48.8811L81.5664 48.8756Z" fill="#231815"/>
<path d="M81.7326 53.8773C81.6052 54.6472 81.2119 55.1568 80.4808 55.0958C79.6222 55.0238 79.2733 54.4312 79.373 53.2514L79.6278 50.1717L84.3359 50.5594L84.0922 53.5283C84.0036 54.625 83.5161 55.0903 82.8127 55.0349C82.1813 54.985 81.8766 54.5309 81.8157 53.8828H81.7382L81.7326 53.8773ZM80.1595 53.0464C80.1097 53.6834 80.2869 53.9825 80.7577 54.0213C81.1787 54.0545 81.4335 53.7554 81.4833 53.1406L81.6218 51.429L80.298 51.3183L80.154 53.0464H80.1595ZM83.4718 51.5786L82.2698 51.4789L82.1424 53.052C82.0981 53.5837 82.2477 53.9216 82.6964 53.9548C83.1284 53.988 83.3001 53.6834 83.3444 53.1572L83.4718 51.5731V51.5786Z" fill="#231815"/>
<path d="M39.0329 81.1953C38.7061 82.0095 38.2187 82.2034 37.4377 81.8877L35.4769 81.0956L35.7206 80.3146L37.3158 80.9571C37.6925 81.1122 37.8808 81.0513 38.0082 80.7356L39.2932 77.5451L40.329 77.9661L39.0273 81.1953H39.0329Z" fill="#231815"/>
<path d="M45.7516 83.9094L45.7018 84.1365L44.6217 83.9038L44.3503 82.8293L41.4424 82.1979L40.75 83.0675L39.7031 82.8404L39.753 82.6133L43.0265 78.7305L44.4057 79.0296L45.7572 83.9205L45.7516 83.9094ZM41.9852 81.5221L44.1343 81.9874L43.525 79.6056L41.9852 81.5221Z" fill="#231815"/>
<path d="M51.9718 81.0236C51.9552 81.8655 51.4346 82.497 50.2105 82.4693L48.222 82.4305L48.1888 84.2362L47.0699 84.214L47.1641 79.4948L50.2825 79.5558C51.4955 79.5779 51.9885 80.1429 51.9718 81.0236ZM50.0609 81.6827C50.5982 81.6938 50.9029 81.4889 50.9084 81.0125C50.9139 80.6082 50.6647 80.3755 50.1108 80.3645L48.2663 80.3257L48.2386 81.644L50.0554 81.6772L50.0609 81.6827Z" fill="#231815"/>
<path d="M58.3029 83.1561L58.3361 83.3832L57.2449 83.5549L56.6024 82.6465L53.6612 83.1062L53.3289 84.1642L52.271 84.3304L52.2377 84.1033L53.8939 79.301L55.2842 79.085L58.3029 83.1616V83.1561ZM53.9271 82.2809L56.0984 81.9431L54.6749 79.938L53.9271 82.2809Z" fill="#231815"/>
<path d="M64.3625 81.2175L63.3101 81.6107L59.4162 79.4505L60.6071 82.6244L59.6821 82.9733L58.0204 78.5532L59.1116 78.1434L62.9445 80.2426L61.7814 77.1408L62.7008 76.7974L64.3625 81.2175Z" fill="#231815"/>
<path d="M63.3987 46.4883C63.2547 46.6988 63.1771 47.0921 62.9556 47.4355C62.662 47.9007 62.2078 48.4768 61.9973 48.4823C61.8755 48.4823 61.8422 48.2109 61.8422 48.2109C61.8422 48.2109 61.6872 47.7623 61.953 47.1751C62.1358 46.7708 62.2466 46.6489 62.4737 46.3443C62.6897 46.0507 62.8337 45.9123 62.9888 45.591C63.1217 45.3141 63.155 45.2642 63.2436 44.8433C63.2658 44.7436 63.2214 44.5275 63.1273 44.5331C62.9888 44.5386 62.6288 45.3473 62.2244 45.7959C61.8533 46.2114 61.1665 46.7653 61.1665 46.7653C61.1665 46.7653 61.1 46.8096 61.089 46.6877C61.0779 46.5659 61.0502 46.2169 61.1222 45.9012C61.1942 45.5855 61.2994 45.2587 61.5764 44.7712C61.8976 44.2063 62.302 43.8352 62.5125 43.6191C62.5955 43.5361 62.8448 43.3754 62.7229 43.2979C62.6066 43.2259 62.2576 43.5361 61.9862 43.7355C61.6428 43.9847 61.5321 44.0512 61.1886 44.4666C60.8508 44.8709 60.7622 45.0482 60.7622 45.0482C60.7622 45.0482 60.4464 45.5633 60.3523 46.0784C60.2636 46.5936 60.2636 46.8705 60.2636 46.8705C60.2636 46.8705 60.2692 47.3247 60.308 47.6072C60.3468 47.8897 60.4575 48.3328 60.4575 48.3328C60.4575 48.3328 60.6181 48.8257 60.6846 49.1359C60.7511 49.4406 60.8619 50.3379 60.8619 50.3379C60.8619 50.3379 60.945 50.9804 60.9007 51.5897C60.8563 52.199 60.8009 52.5535 60.7289 52.7362C60.6569 52.9246 60.4686 53.412 60.1695 53.7443C59.8759 54.0711 59.815 54.121 59.815 54.121C59.815 54.121 59.5103 54.3758 59.2611 54.5087C59.0118 54.6416 58.6297 54.8189 58.4635 54.8577C58.3029 54.8964 58.0591 54.9186 58.037 54.9186H57.821C57.821 54.9186 57.7656 54.8798 57.7545 54.8577C57.7434 54.8355 57.7268 54.7192 57.7268 54.7192C57.7268 54.7192 57.5662 54.0656 57.3613 53.6335C57.1951 53.2846 56.8406 52.7861 56.8406 52.7861C56.8406 52.7861 56.2258 51.9608 55.7605 51.5011C55.2177 50.9582 54.6084 50.5539 54.2428 50.2603C54.1099 50.1551 53.7997 49.9778 53.7997 49.9778C53.7997 49.9778 52.5645 48.7482 52.1214 47.7567C51.8168 47.0754 51.6173 46.5825 51.6949 45.8403C51.7115 45.663 51.7835 45.3584 51.8168 45.3528C51.85 45.3528 52.0106 45.4027 52.0383 45.4138C52.066 45.4248 52.2654 45.6076 52.4371 45.6741C52.5479 45.7184 52.7307 45.7406 52.7307 45.7406C52.7307 45.7406 52.8802 45.7516 52.9633 45.7793C53.0464 45.807 53.1904 45.8624 53.3012 45.9178C53.412 45.9732 53.5616 46.0674 53.5616 46.0674C53.5616 46.0674 53.8163 46.2612 53.8495 46.2834C53.8828 46.3055 54.1542 46.5271 54.1542 46.5271C54.1542 46.5271 54.3259 46.6489 54.3758 46.6656C54.4201 46.6822 54.4644 46.7043 54.481 46.7043C54.4976 46.7043 54.5419 46.7043 54.5419 46.7043C54.5419 46.7043 54.6139 46.6933 54.625 46.6102C54.6361 46.5326 54.5475 46.588 54.3813 46.4274C54.2151 46.2668 54.1542 46.1504 54.1542 46.1504C54.1542 46.1504 54.1154 46.0064 53.988 45.8624C53.8606 45.7184 53.6834 45.5855 53.6834 45.5855C53.6834 45.5855 53.5671 45.4968 53.3953 45.4525C53.2236 45.4082 53.1683 45.4027 53.1627 45.3307C53.1517 45.2642 53.3732 45.2919 53.3732 45.2919C53.3732 45.2919 53.6225 45.3196 53.8274 45.4248C54.0323 45.5301 54.1542 45.6409 54.1542 45.6409L54.2982 45.7572L54.3868 45.8403L54.4755 45.8956C54.4755 45.8956 54.5696 45.9732 54.5862 45.8624C54.6029 45.7516 54.5696 45.6852 54.5586 45.6575C54.5475 45.6298 54.4699 45.5689 54.4699 45.5689L54.1376 45.2864C54.0434 45.1867 53.9659 45.1147 53.8662 45.0482C53.7665 44.9817 53.6058 44.882 53.4286 44.8045C53.268 44.738 53.1517 44.7546 52.9966 44.6771C52.8803 44.6217 52.7861 44.5885 52.7141 44.4943C52.6975 44.4721 52.6144 44.4112 52.764 44.4444C52.9135 44.4777 53.0243 44.522 53.1904 44.5663C53.4618 44.6383 53.628 44.6272 53.8883 44.7269C53.9825 44.7657 54.132 44.8322 54.132 44.8322L54.4478 44.9651C54.4478 44.9651 54.8798 45.2033 55.1955 45.2144C55.5057 45.2254 55.7549 45.1534 55.8546 45.1147C55.9543 45.0759 56.1482 44.9706 56.1981 44.9153C56.2479 44.8654 56.2812 44.8211 56.2812 44.8211C56.2812 44.8211 56.3033 44.7712 56.3088 44.7435C56.3088 44.7159 56.3199 44.6992 56.3088 44.6771C56.2258 44.5774 56.0596 44.8488 55.7771 44.8986C55.5002 44.954 55.5002 44.9762 55.3229 44.9485C55.118 44.9208 54.9962 44.8599 54.8411 44.7214C54.5641 44.4721 54.4588 44.234 54.1154 44.0733C53.9603 44.0013 53.689 43.9404 53.689 43.9404C53.689 43.9404 53.3178 43.8296 53.1074 43.7078C52.9523 43.6191 52.631 43.5804 52.7362 43.4419C52.7861 43.3754 53.1849 43.6136 53.4896 43.6524C53.7 43.6801 53.8607 43.6745 54.0379 43.6635C54.2152 43.6468 54.4478 43.6191 54.481 43.6081C54.5142 43.597 54.6527 43.6081 54.758 43.6358C54.8798 43.6635 54.9407 43.7133 55.0571 43.7632C55.1678 43.813 55.3174 43.8905 55.3395 43.8905C55.3617 43.8905 55.4116 43.9016 55.4116 43.9016C55.4116 43.9016 55.4448 43.885 55.4503 43.8629C55.4614 43.8407 55.4614 43.8241 55.4614 43.8241L55.4503 43.7853L55.3949 43.7465L55.2897 43.6801C55.2897 43.6801 55.1401 43.5914 55.0072 43.4585C54.8743 43.3256 54.7469 43.1816 54.5475 43.104C54.3481 43.032 54.1099 43.0043 54.1099 43.0043L53.8828 42.9877L53.7886 42.9766C53.7886 42.9766 53.6225 42.9268 53.7554 42.888C53.8883 42.8492 53.9659 42.8382 53.988 42.8271C54.0102 42.816 54.2373 42.7994 54.3758 42.8437C54.5198 42.888 54.7302 43.0043 54.7469 43.0154C54.7635 43.0265 54.9629 43.1816 55.1845 43.237C55.4116 43.2923 55.6996 43.3034 55.6996 43.3034C55.6996 43.3034 55.8103 43.2868 55.838 43.2702C55.8657 43.2591 55.8768 43.248 55.899 43.248C55.9211 43.248 55.9433 43.2314 55.9489 43.2093C55.9489 43.1871 55.9377 43.1151 55.9377 43.1151C55.9377 43.1151 55.9377 43.0431 55.838 43.0265C55.7328 43.0154 55.539 42.9766 55.3506 42.8326C55.1568 42.6886 55.0183 42.5612 55.0183 42.5612C55.0183 42.5612 54.8743 42.4393 54.6195 42.3784C54.3647 42.3175 54.2871 42.3064 54.2871 42.3064L54.1985 42.2787L54.0046 42.1901C54.0046 42.1901 53.916 42.1458 53.8551 42.0627C53.7886 41.9796 53.6834 41.8245 53.9714 41.9187C54.2539 42.0128 54.3204 42.0516 54.3204 42.0516C54.3204 42.0516 54.4755 42.2012 54.5973 42.2178C54.6749 42.2289 54.7469 42.251 54.7967 42.1901C54.8743 42.1015 54.6361 42.0018 54.4699 41.891C54.3425 41.8024 54.204 41.5919 54.204 41.5919C54.204 41.5919 54.1099 41.4977 54.2594 41.542C54.409 41.5808 54.6859 41.7359 54.6859 41.7359C54.6859 41.7359 54.8299 41.8024 54.8853 41.8245C54.9407 41.8467 55.0792 41.9353 55.1346 41.9519C55.19 41.9685 55.334 41.9962 55.4448 42.0627C55.5722 42.1402 55.6442 42.2787 55.7162 42.3341C55.7826 42.3895 55.8381 42.4615 55.9156 42.4837C55.9932 42.5058 56.0208 42.5335 56.0762 42.5003C56.1316 42.467 56.1427 42.4394 56.1427 42.4394C56.1427 42.4394 56.1538 42.395 56.0762 42.3507C55.9987 42.3064 55.8934 42.1679 55.8934 42.1679L55.8602 42.0959L55.838 42.035L55.7494 41.9076L55.6054 41.6861C55.6054 41.6861 55.3617 41.3648 55.1567 41.2485C54.9518 41.1322 54.8078 41.0712 54.8078 41.0712C54.8078 41.0712 54.7026 41.0269 54.6472 40.9826C54.5641 40.9217 54.5364 40.8663 54.4699 40.7887C54.3813 40.6835 54.3426 40.617 54.2484 40.5173C54.0656 40.3235 53.4784 40.2293 53.7111 40.0964C53.8274 40.0299 53.9825 40.0576 54.0545 40.0798C54.121 40.1019 54.2761 40.1684 54.4201 40.2072C54.5253 40.2348 54.5863 40.2404 54.697 40.2736C54.8023 40.3013 54.9241 40.329 54.9684 40.3622C55.0127 40.3955 55.0737 40.4564 55.0958 40.473C55.118 40.4841 55.2454 40.7001 55.4891 40.822C55.7328 40.9383 55.8436 41.0158 56.0873 41.038C56.2757 41.0546 56.5747 40.9771 56.5747 40.9771C56.5747 40.9771 56.6689 40.9383 56.5858 40.8608C56.5083 40.7777 56.5027 40.7666 56.4307 40.7389C56.1648 40.6281 55.9488 40.6724 55.7383 40.4675C55.6553 40.3844 55.622 40.3622 55.5611 40.2293C55.5002 40.0964 55.5279 40.0687 55.4836 39.9745C55.4448 39.8914 55.3617 39.7696 55.3617 39.7696C55.3617 39.7696 55.1124 39.4705 54.83 39.3154C54.5475 39.1603 54.3425 39.0107 54.2982 38.972C54.2539 38.9332 54.1487 38.8003 54.1487 38.8003C54.1487 38.8003 54.0711 38.7006 54.0545 38.6729C54.0434 38.6452 54.0157 38.6119 54.0046 38.5621C53.9659 38.3738 54.3038 38.6175 54.4921 38.6784C54.8023 38.7726 54.9463 38.9055 55.2565 39.0107C55.4282 39.0661 55.5334 39.0661 55.6996 39.1326C55.9931 39.2489 56.0707 39.5369 56.3808 39.5646C56.5581 39.5813 56.8904 39.6533 56.8295 39.4926C56.763 39.3209 56.4252 39.332 56.2535 39.1271C56.1759 39.0384 56.1649 38.9609 56.0873 38.8723C55.9433 38.7061 55.6276 38.5455 55.6276 38.5455C55.6276 38.5455 55.5168 38.4568 55.4116 38.2187C55.3063 37.9805 55.0515 37.8199 54.6028 37.5983C54.2982 37.4488 53.6889 37.4211 53.9326 37.2494C54.0767 37.1497 54.1874 37.1607 54.3758 37.2217C54.5641 37.2826 54.625 37.3657 54.7745 37.4432C54.9241 37.5152 54.9906 37.5318 55.0238 37.5485C55.057 37.5651 55.1845 37.6149 55.2233 37.6205C55.262 37.6315 55.5168 37.6814 55.5777 37.6869C55.6386 37.698 55.9156 37.77 55.9156 37.77L56.1925 37.8753C56.1925 37.8753 56.32 37.9251 56.4141 37.9196C56.5083 37.9196 56.6412 37.8808 56.6412 37.8808L56.7409 37.8143L56.763 37.7811C56.763 37.7811 56.8074 37.7036 56.6855 37.6869C56.5637 37.6703 56.5083 37.6703 56.4861 37.6648C56.4695 37.6648 56.403 37.626 56.3698 37.626C56.3365 37.626 56.3144 37.6039 56.3144 37.6039C56.3144 37.6039 56.0873 37.4155 55.8713 37.3269C55.6552 37.2383 55.6109 37.2217 55.6109 37.2217C55.6109 37.2217 55.5611 37.2106 55.5334 37.2051C55.5057 37.2051 55.4337 37.1829 55.4337 37.1829C55.4337 37.1829 55.3451 37.1829 55.2122 37.061C55.0737 36.9392 55.0238 36.8783 54.9075 36.7619C54.8466 36.701 54.7469 36.6069 54.7469 36.6069C54.7469 36.6069 54.6084 36.5071 54.6139 36.4185C54.625 36.2856 54.9186 36.5625 54.9186 36.5625L55.118 36.6955C55.118 36.6955 55.2842 36.8173 55.5943 36.8284C55.9045 36.8395 56.2701 36.7342 56.2701 36.7342C56.2701 36.7342 56.3255 36.6955 56.4916 36.7509C56.6633 36.8062 56.7963 36.8949 56.7963 36.8949L56.9292 37.0112C56.9292 37.0112 57.1175 37.2438 57.1342 37.2327C57.1508 37.2217 57.1452 37.2327 57.1674 37.2161C57.184 37.1995 57.2726 37.1054 57.1231 36.9281C56.9735 36.7509 56.7132 36.5681 56.7132 36.5681C56.7132 36.5681 56.3698 36.3631 56.0374 36.2911C55.7051 36.2247 55.55 36.2247 55.55 36.2247C55.55 36.2247 55.2952 36.2247 55.1457 36.053C55.0017 35.8812 54.8853 35.7206 54.8853 35.7206L54.7745 35.6375C54.7745 35.6375 54.6859 35.5323 54.5253 35.4658C54.3647 35.3994 54.1985 35.3052 54.1985 35.3052C54.1985 35.3052 53.9548 35.2166 53.9326 35.1058C53.8883 34.8842 54.3481 35.1058 54.6084 35.1612C54.841 35.211 54.9518 35.2997 55.1845 35.3495C55.3894 35.3938 55.5112 35.4104 55.7217 35.4104C55.8436 35.4104 55.9101 35.3883 56.0319 35.3827C56.1593 35.3772 56.2313 35.3606 56.3587 35.3827C56.5304 35.416 56.6024 35.4935 56.7575 35.5711C56.8627 35.6209 56.9126 35.6763 57.0234 35.6929C57.1286 35.7095 57.3225 35.7705 57.2948 35.6708C57.2837 35.6431 57.2671 35.6265 57.2505 35.6043C57.1674 35.4935 57.0732 35.4824 56.9569 35.3994C56.7298 35.2387 56.6357 35.0892 56.3864 34.9673C56.2147 34.8842 56.115 34.851 55.9266 34.8178C55.7882 34.7901 55.6996 34.8344 55.5611 34.7956C55.4116 34.7513 55.3506 34.6738 55.2122 34.5907C54.9684 34.4467 54.8466 34.3359 54.5862 34.2306C54.4145 34.1642 54.1265 34.0977 54.1265 34.0977L54.0046 34.0811C54.0046 34.0811 53.9714 34.0756 53.9548 34.07C53.7166 33.9925 54.3702 33.7931 54.6749 33.7155C54.8189 33.6767 54.8909 33.6491 55.0515 33.6601C55.19 33.6712 55.334 33.854 55.4836 33.7709C55.6996 33.6491 55.2232 33.3278 55.0792 33.2779C54.8743 33.2004 54.5198 33.2613 54.5198 33.2613L53.7388 33.2503L53.5228 33.2226C53.5228 33.2226 53.3898 33.2226 53.2901 33.1118C53.1904 32.9955 52.8027 32.5191 52.3485 32.4471C51.8999 32.3806 51.7559 32.4582 51.7226 32.4083C51.3405 31.8046 50.925 31.6606 50.6203 31.3726C50.5373 31.2895 50.3988 31.1011 50.3656 31.1288C50.3379 31.151 50.288 31.4002 50.1939 31.6163C50.0831 31.8655 50.1551 31.9929 50.216 32.0815C50.277 32.1757 50.3711 32.2477 50.2049 32.3529C50.0332 32.4582 49.8172 32.4249 49.8172 32.4249C49.8172 32.4249 49.6289 32.3862 49.4738 32.3142C49.3187 32.2422 49.003 32.0982 49.003 32.0982C49.003 32.0982 48.6984 32.0095 48.4879 32.0317C48.2774 32.0483 48.2663 32.0649 48.1223 32.0815C48.0448 32.0926 47.9949 32.0926 47.9229 32.1092C47.8619 32.1258 47.7733 32.0815 47.7678 32.1591C47.7678 32.2366 47.945 32.2477 48.0613 32.2976C48.1887 32.3474 48.4546 32.3419 48.3937 32.4083C48.3272 32.4693 48.078 32.4859 48.0613 32.4748C48.0447 32.4637 47.8675 32.436 47.7457 32.4416C47.5186 32.4526 47.513 32.4637 47.1862 32.6133C47.1419 32.6354 47.1475 32.7462 47.2582 32.7185C47.3746 32.6908 47.5462 32.652 47.729 32.6576C47.934 32.6687 48.0447 32.7296 48.2441 32.7794C48.4158 32.8238 48.4325 32.8681 48.6817 32.8958C48.7316 32.8958 48.8423 32.8625 48.8368 32.9235C48.8368 32.9678 48.7593 33.001 48.7593 33.001C48.7593 33.001 48.5986 33.0342 48.6263 33.0896C48.6596 33.1616 48.8036 33.0896 48.8645 33.0896C48.9365 33.0841 49.0418 33.1118 49.0196 33.1838C49.0141 33.2115 49.003 33.2226 48.9808 33.2392C48.7981 33.2835 48.6928 33.3167 48.5155 33.3887C48.0946 33.5549 47.9174 33.7654 47.513 33.9648C47.1253 34.1531 46.4938 34.3857 46.4938 34.3857C46.4938 34.3857 46.3055 34.491 46.0397 34.5519C45.7738 34.6128 45.7517 34.6073 45.5633 34.6294C45.375 34.6516 45.2863 34.6738 45.1313 34.7624C45.0316 34.8178 44.9762 34.8621 44.8931 34.9452L44.6549 35.2997L44.5275 35.5046C44.4887 35.5655 44.4666 35.6043 44.4389 35.6708C44.4057 35.7483 44.3835 35.7926 44.3613 35.8757C44.3115 36.0751 44.3558 36.197 44.389 36.4019C44.4001 36.4573 44.4057 36.4961 44.4168 36.5459C44.4279 36.6013 44.5109 36.6512 44.5109 36.6512L44.5774 36.6678C44.5774 36.6678 44.8045 36.6512 44.9651 36.6124C45.1257 36.5736 45.3307 36.5293 45.3307 36.5293C45.3307 36.5293 45.591 36.4462 45.6076 36.4407C45.6242 36.4407 45.7904 36.3742 45.7904 36.3742C45.7904 36.3742 45.9067 36.3742 45.9344 36.4351C45.9566 36.485 45.9012 36.5681 45.9012 36.5681C45.9012 36.5681 45.807 36.6179 45.7184 36.6456C45.6298 36.6733 45.4359 36.7398 45.4138 36.7398C45.3971 36.7398 45.1922 36.8007 45.1922 36.8007L45.0482 36.8395C45.0482 36.8395 45.0094 36.8506 44.9762 36.9059C44.943 36.9613 44.954 36.9613 44.9596 36.9946C44.9873 37.0333 45.0039 37.0555 45.0427 37.0887C45.1036 37.1441 45.1479 37.1663 45.2199 37.194C45.3307 37.2383 45.4027 37.2327 45.5246 37.2327C45.6963 37.2327 45.7959 37.2051 45.9566 37.133C46.0895 37.0555 46.1394 37.0444 46.3222 36.9835C46.372 36.9669 46.4662 36.9503 46.516 36.9447C46.8373 36.9115 47.0256 36.9669 47.3413 37.0167C47.657 37.0721 47.8232 37.1607 48.1334 37.2161C48.4768 37.2771 48.6817 37.3657 49.0252 37.2937C49.2024 37.2549 49.2966 37.1829 49.3907 37.3435C49.4849 37.5042 49.4627 37.5872 49.4627 37.5872C49.4627 37.5872 49.4627 37.6925 49.3409 38.0082C49.2245 38.3239 48.8535 39.1215 48.8535 39.1215L48.5986 39.6366C48.5986 39.6366 48.3937 40.0354 47.9229 40.5616C47.4576 41.0878 47.4189 41.1266 47.4189 41.1266C47.4189 41.1266 47.1751 41.3039 46.9093 41.6251C46.6489 41.9464 46.649 42.0682 46.4163 42.2953C46.2668 42.4449 46.1837 42.539 45.9898 42.6443C45.7959 42.7495 45.5855 42.7218 44.9928 43.1317C44.4832 43.4862 44.2229 43.7687 44.1841 43.7576C44.1453 43.7465 43.9736 43.6025 43.9238 43.5693C43.8684 43.5361 42.8936 42.8658 42.8936 42.8658L42.4837 42.5944L42.3009 42.4781L42.2455 42.4449L42.1513 42.3064C42.1513 42.3064 42.0073 42.1236 41.8135 41.963C41.6196 41.8024 41.4146 41.6639 41.1211 41.5864C40.8386 41.5088 40.6447 41.459 40.3623 41.5476C40.1739 41.6085 40.0798 41.6805 39.9302 41.8134C39.7585 41.9741 39.7253 42.1181 39.5923 42.3175C39.4594 42.5114 39.3209 42.7108 39.2545 42.816C39.188 42.9212 39.044 43.1926 39.044 43.1926C39.044 43.1926 38.7116 43.7299 38.5122 44.0844C38.3017 44.4666 38.2131 44.7048 38.0026 45.087C37.6814 45.6741 37.2328 46.2945 37.1109 46.5603C36.989 46.8262 36.9835 46.8594 36.9835 46.8594C36.9835 46.8594 36.9447 47.009 36.9336 47.1087C36.9226 47.2028 36.917 47.3745 36.906 47.4521C36.8893 47.5296 36.845 47.6183 36.8284 47.6349C36.8118 47.657 36.6179 48.0337 36.5515 48.294C36.485 48.5543 36.3354 49.3464 36.5238 49.4461C36.7065 49.5458 38.0857 48.9587 38.263 48.3716C38.3738 48.0004 37.8919 47.8177 38.0248 47.4798C38.0691 47.369 38.1135 47.3524 38.191 47.225C38.3239 47.009 38.2685 46.5437 38.5344 46.1172C38.7227 45.8126 39.0883 45.4193 39.6034 44.8433C39.9191 44.4888 40.2293 43.9072 40.2293 43.9072C40.2293 43.9072 40.2958 43.7078 40.4398 43.7355C40.5838 43.7632 40.7223 43.7576 40.7223 43.7576C40.7223 43.7576 40.7777 43.8019 40.7998 43.813C40.8164 43.8241 40.9328 43.9459 40.9328 43.9459L41.1432 44.2561C41.1432 44.2561 41.4811 44.7491 41.5974 44.8876C41.7137 45.0205 41.8412 45.1202 41.9963 45.2642C42.1846 45.4359 42.2455 45.5135 42.4781 45.6962C42.8215 45.9677 42.6886 46.0618 42.2621 45.8292C42.1126 45.7461 41.8799 45.663 41.6861 45.6132C41.4922 45.5633 40.7112 45.3584 40.3346 45.3085C39.9579 45.2587 39.9025 45.2697 39.9025 45.2697C39.9025 45.2697 39.7087 45.2587 39.4982 45.3916C39.2877 45.5245 39.1548 45.6298 39.1548 45.6298C39.1548 45.6298 38.9055 45.9178 38.8834 45.9676C38.8612 46.0175 38.7393 46.2224 38.7393 46.2224C38.7393 46.2224 38.6784 46.3221 38.6507 46.4495C38.623 46.5714 38.6286 46.6933 38.6286 46.6933L38.6397 46.9425L38.6618 47.1807C38.6618 47.1807 38.7061 47.7678 38.8391 48.3716C38.8778 48.5433 38.9055 48.8202 38.9055 48.8202L38.9886 49.424C38.9886 49.424 39.044 50.072 39.0883 50.277C39.1326 50.4819 39.1658 50.4985 39.1991 50.6425C39.26 50.9029 39.1437 51.0192 39.2711 51.3183C39.404 51.6118 39.4982 51.5786 39.6145 51.7669C39.692 51.8943 39.7308 51.9331 39.7973 52.1048C39.8637 52.2765 40.0797 52.8249 40.3456 53.2458C40.6115 53.6723 40.9771 54.193 41.2152 54.1376C41.4534 54.0822 41.6196 53.7222 41.6196 53.7222C41.6196 53.7222 41.891 53.0021 41.7193 52.2765C41.5476 51.5454 40.7666 51.8943 40.678 51.3626C40.6614 51.2463 40.6724 51.0635 40.6724 51.0635C40.6724 51.0635 40.6503 50.8364 40.6226 50.7754C40.5949 50.7145 40.3124 50.1939 40.2127 49.784C40.1351 49.4683 40.1407 48.438 40.0687 48.1445C39.8859 47.4022 39.8582 47.4687 39.969 47.3413C40.0798 47.2084 40.1905 47.2361 40.1905 47.2361C40.1905 47.2361 40.3069 47.2472 40.3346 47.2472C40.3623 47.2472 40.4509 47.297 40.4509 47.297C40.4509 47.297 40.5949 47.3801 40.6669 47.4355C40.7444 47.4964 40.966 47.6736 40.966 47.6736L41.5365 48.0392C41.5365 48.0392 41.8577 48.2275 42.0018 48.2885C42.1458 48.3494 42.2621 48.4436 42.2621 48.4436L42.4117 48.5433L42.672 48.726C42.672 48.726 42.7107 48.7537 42.7274 48.7759C42.744 48.7981 42.7661 48.8368 42.7661 48.8368C42.7661 48.8368 42.888 49.1082 43.3865 49.4018C43.7964 49.6455 44.1509 49.568 44.306 49.7563C44.3337 49.7895 44.6217 50.1717 44.7712 50.4154C44.9374 50.6868 45.1368 51.0136 45.2088 51.1133C45.2753 51.213 45.7018 51.7337 45.7018 51.7337L46.2502 52.343L46.9758 53.0132L47.6293 53.5671L48.0448 53.8994C48.0448 53.8994 48.4159 54.2594 48.8424 54.5475C49.2412 54.8189 49.2689 54.8577 49.5348 55.0349C49.7452 55.1734 50.0111 55.3506 50.2714 55.5611C50.5373 55.7771 50.8419 56.1815 50.7256 56.3199C50.6481 56.3698 50.4874 56.1538 50.1939 55.899C49.9502 55.694 49.8394 55.5999 49.6012 55.4171C49.2966 55.19 49.147 55.0681 48.8036 54.8632C48.643 54.769 48.3272 54.5696 48.3162 54.6084C48.1943 54.9684 48.222 55.3118 48.2386 55.7494C48.2497 56.0541 48.3051 56.3587 48.3993 56.7409C48.4879 57.112 48.571 57.3114 48.7039 57.6659C48.8424 58.0259 49.0971 58.5743 49.0971 58.5743L49.4904 59.3553L49.8449 59.9535L50.0332 60.2637L50.0942 60.3578C50.0942 60.3578 50.1717 60.5572 50.0942 60.6902C50.0166 60.8231 49.9003 61.1111 49.7563 61.1388C49.6122 61.1665 49.2522 61.1942 49.2522 61.1942L47.2416 61.1665L46.1892 61.0723C46.1892 61.0723 46.0785 61.0003 45.4581 61.0114C45.0981 61.017 44.81 61.161 44.6106 61.172C44.4444 61.1831 43.6136 61.1222 43.0597 61.3493C42.5391 61.5598 42.2953 61.6152 42.107 61.953C41.9685 62.2078 42.7661 62.6066 43.4197 62.7562C44.4887 62.9999 44.1786 62.5291 44.5885 62.2466C44.6383 62.2134 44.6549 62.1746 44.7158 62.158C44.9928 62.0749 45.1368 62.2909 45.4138 62.2964C45.7184 62.2964 45.8845 62.1912 46.1892 62.1469C47.7235 61.9364 50.1219 62.6676 50.1219 62.6676C50.1219 62.6676 50.7035 62.8559 50.9915 62.795C51.3128 62.7285 51.2518 62.6122 51.3515 62.4294C51.4346 62.2743 51.4014 62.2411 51.4124 62.0749C51.418 61.9752 51.3958 61.9198 51.3737 61.8256C51.3127 61.5432 51.13 61.1388 51.13 61.1388C51.13 61.1388 50.997 60.8342 50.9527 60.6735C50.8862 60.4464 50.8253 60.3191 50.7921 60.0864C50.6979 59.455 50.709 59.5214 50.709 59.1559C50.709 58.5189 50.7754 58.1533 50.9472 57.5385C51.2019 56.6246 51.6728 56.2424 52.0217 55.3617C52.1159 55.1291 52.1269 54.7801 52.2488 54.758C52.3762 54.7358 52.3651 55.1789 52.3042 55.4337C52.0827 56.3199 51.5343 56.691 51.2961 57.5884C51.1078 58.2752 51.0136 58.6906 51.0579 59.3996C51.0801 59.7928 51.2297 60.4021 51.2297 60.4021C51.2297 60.4021 51.429 61.0779 51.5343 61.3271C51.6395 61.5764 51.8334 62.0084 51.8334 62.0084L52.2876 62.8282L52.5257 63.2159C52.5257 63.2159 52.6975 63.371 52.6144 63.6203C52.5258 63.8695 52.354 64.0191 52.1546 64.2517C51.573 64.9219 50.2437 65.9189 49.9114 66.1682C49.4406 66.5171 49.4516 66.6168 49.4129 66.7331C49.219 67.2704 48.6873 67.287 48.0891 67.9406C47.9617 68.0846 47.5961 68.4447 47.6737 68.7604C47.7014 68.8767 49.1636 69.137 50.0166 68.7715C50.6758 68.4834 50.1052 68.1677 50.2825 67.8465C50.4099 67.6083 50.7588 67.6138 50.9084 67.4144C51.1576 67.0821 50.9859 67.0987 51.2186 66.8218C51.9552 65.9466 52.415 65.437 53.7166 64.6505C53.8385 64.573 54.0489 64.4843 54.0489 64.4843C54.0489 64.4843 54.2317 64.3957 54.3037 64.296C54.3979 64.1631 54.3647 64.0468 54.3702 63.8861C54.3702 63.7864 54.3592 63.7255 54.3536 63.6258C54.3481 63.5095 54.3647 63.4375 54.3425 63.3212C54.3038 63.1384 54.1874 62.9777 54.1265 62.8891C54.0656 62.8005 53.9493 62.6509 53.8662 62.3241C53.7887 62.0029 53.7775 61.7259 53.916 61.3714C54.0545 61.017 54.3591 60.7234 54.3591 60.7234L55.1235 60.2138C55.1235 60.2138 55.7771 59.7375 55.9876 59.5547C56.1981 59.3719 56.6246 58.9786 56.9403 58.5355C57.2893 58.0425 57.4831 57.7324 57.6271 57.1508C57.6825 56.9403 57.7212 56.5969 57.7212 56.5969C57.7212 56.5969 57.7158 56.3587 57.8487 56.3476C57.9816 56.3365 58.0149 56.3864 58.0149 56.3864C58.0149 56.3864 58.1367 56.4529 58.1588 56.7963C58.181 57.1397 58.0702 57.5163 58.0702 57.5163C58.0702 57.5163 57.9706 57.8985 57.9429 58.1478C57.9262 58.3029 57.9207 58.3915 57.9207 58.5466C57.9207 58.8346 58.0425 59.0617 58.0425 59.0617C58.0425 59.0617 58.1146 59.1171 58.109 58.9842C58.109 58.8568 58.1367 58.6463 58.2032 58.4358C58.253 58.2641 58.2807 58.3029 58.3804 58.0093C58.5078 57.6382 58.3915 57.677 58.4746 57.461C58.5134 57.3557 58.5909 57.2616 58.6906 57.256C58.7903 57.256 58.8069 57.4 58.8069 57.4C58.8069 57.4 58.9122 57.8487 58.818 58.253C58.7238 58.6574 58.4358 59.2168 58.4358 59.2168L58.1921 59.6322C58.1921 59.6322 58.0314 59.9092 57.9594 60.103C57.8874 60.308 57.8653 60.391 57.9041 60.5683C57.9484 60.7622 58.109 61.0502 58.1865 60.9948C58.2585 60.9449 58.0869 60.7677 58.2918 60.3634C58.4912 59.959 58.7626 59.7098 58.7626 59.7098C58.7626 59.7098 59.1393 59.2666 59.3054 58.9343C59.4605 58.6407 59.6045 58.1312 59.6045 58.1312C59.6045 58.1312 59.7153 57.6881 59.6931 57.3225C59.671 56.9624 59.61 56.7741 59.61 56.7741C59.61 56.7741 59.4771 56.5304 59.4605 56.5027C59.4439 56.475 59.3719 56.3421 59.3719 56.3089C59.3719 56.2701 59.3719 56.1981 59.4107 56.187C59.4494 56.1759 59.5602 56.2535 59.6655 56.3864C59.7707 56.5249 59.8593 56.6966 59.9258 56.9237C59.9756 57.1009 59.9867 57.2505 59.9922 57.3889C59.9922 57.5274 59.9479 58.0813 60.1529 58.4413C60.247 58.6075 60.4409 58.9952 60.4575 58.8235C60.4852 58.4303 60.3246 58.253 60.3467 57.8985C60.3689 57.4997 60.4575 57.5939 60.4963 57.3889C60.5351 57.1785 60.5849 57.112 60.5406 56.8351C60.5018 56.5581 60.391 56.2092 60.391 56.2092C60.391 56.2092 60.2914 55.9654 60.2747 55.9322C60.2637 55.9045 60.2304 55.8325 60.2304 55.8325C60.2304 55.8325 60.2637 55.7882 60.3135 55.7771C60.3634 55.766 60.7234 55.6386 60.7234 55.6386C60.7234 55.6386 61.2385 55.3949 61.4545 55.2398C61.6706 55.0847 61.9309 54.8133 61.9309 54.8133C61.9309 54.8133 62.2743 54.3924 62.4349 54.0877C62.8337 53.3289 62.8504 52.3541 62.8282 51.9276C62.8061 51.5011 62.6897 50.9361 62.6897 50.9361C62.6897 50.9361 62.5623 50.2603 62.59 49.8172C62.6177 49.3741 62.6565 49.1692 62.6565 49.1692C62.6565 49.1692 62.6454 48.7205 63.0055 48.2497C63.3766 47.7678 63.5427 47.4632 63.6092 47.1253C63.6645 46.8373 63.5483 46.3554 63.4209 46.5382M52.1934 43.4419C52.1436 43.4364 52.0716 43.381 52.0716 43.381C52.0716 43.381 52.0605 43.3588 52.1048 43.3311C52.1491 43.3034 52.2156 43.32 52.2156 43.32C52.2156 43.32 52.2377 43.32 52.2599 43.3422C52.2821 43.3588 52.343 43.4253 52.343 43.4641C52.343 43.5028 52.2377 43.453 52.1879 43.4474M52.4094 42.888C52.3485 42.8769 52.271 42.816 52.271 42.816C52.271 42.816 52.2543 42.7883 52.3097 42.7551C52.3651 42.7218 52.4427 42.7385 52.4427 42.7385C52.4427 42.7385 52.4704 42.744 52.4925 42.7661C52.5147 42.7883 52.5867 42.8658 52.5922 42.9102C52.5922 42.9545 52.4704 42.8991 52.415 42.888M52.5867 42.3064C52.5147 42.2953 52.415 42.2178 52.415 42.2178C52.415 42.2178 52.3928 42.1846 52.4593 42.1458C52.5257 42.107 52.6199 42.1292 52.6199 42.1292C52.6199 42.1292 52.6532 42.1347 52.6809 42.1624C52.7085 42.1901 52.7971 42.2843 52.8027 42.3396C52.8082 42.3895 52.6531 42.323 52.5811 42.312M52.7418 41.7802C52.6698 41.7691 52.5701 41.6916 52.5701 41.6916C52.5701 41.6916 52.5479 41.6584 52.6144 41.6196C52.6809 41.5808 52.775 41.603 52.775 41.603C52.775 41.603 52.8082 41.6085 52.8359 41.6362C52.8636 41.6639 52.9522 41.7581 52.9578 41.8134C52.9633 41.8688 52.8082 41.7968 52.7362 41.7858M52.8858 41.1543C52.8082 41.1432 52.6919 41.0546 52.6919 41.0546C52.6919 41.0546 52.6698 41.0158 52.7418 40.9715C52.8138 40.9272 52.919 40.9494 52.919 40.9494C52.919 40.9494 52.9578 40.9605 52.991 40.9881C53.0243 41.0158 53.1184 41.1266 53.1295 41.182C53.135 41.2429 52.9633 41.1654 52.8858 41.1543ZM53.0021 40.4841C52.908 40.4675 52.7695 40.3622 52.7695 40.3622C52.7695 40.3622 52.7418 40.3179 52.8304 40.2625C52.919 40.2072 53.0464 40.2349 53.0464 40.2349C53.0464 40.2349 53.0907 40.2459 53.1295 40.2792C53.1683 40.3124 53.2846 40.4453 53.2957 40.5118C53.3067 40.5838 53.0963 40.4952 53.0021 40.4786M53.0686 39.8028C52.9522 39.7862 52.7861 39.6588 52.7861 39.6588C52.7861 39.6588 52.7529 39.6034 52.8636 39.5369C52.9689 39.4705 53.1295 39.5037 53.1295 39.5037C53.1295 39.5037 53.1849 39.5148 53.2292 39.5591C53.279 39.6034 53.4175 39.7585 53.4286 39.8416C53.4397 39.9247 53.1849 39.8194 53.0686 39.7973M53.1683 39.0274C53.0298 39.0052 52.8415 38.8557 52.8415 38.8557C52.8415 38.8557 52.8027 38.7947 52.9301 38.7172C53.0519 38.6396 53.2347 38.6784 53.2347 38.6784C53.2347 38.6784 53.2957 38.695 53.3511 38.7449C53.4065 38.7947 53.5671 38.9775 53.5837 39.0717C53.5948 39.1714 53.3068 39.044 53.1683 39.0218M53.1018 35.8868C52.9966 35.8702 52.8581 35.776 52.8581 35.776C52.8581 35.776 52.8304 35.7372 52.9246 35.6818C53.0187 35.632 53.1572 35.6541 53.1572 35.6541C53.1572 35.6541 53.2015 35.6652 53.2458 35.6985C53.2901 35.7317 53.412 35.8535 53.4176 35.92C53.4286 35.9865 53.207 35.9034 53.1018 35.8868ZM53.4673 36.6512C53.4784 36.7287 53.2458 36.629 53.135 36.6124C53.0298 36.5958 52.8747 36.485 52.8747 36.485C52.8747 36.485 52.847 36.4351 52.9412 36.3797C53.0409 36.3188 53.1849 36.3521 53.1849 36.3521C53.1849 36.3521 53.2348 36.3631 53.2791 36.4019C53.3234 36.4407 53.4508 36.5792 53.4618 36.6512M52.9799 37.8974C53.0852 37.831 53.2458 37.8642 53.2458 37.8642C53.2458 37.8642 53.3012 37.8753 53.3455 37.9196C53.3954 37.9639 53.5339 38.119 53.5449 38.2021C53.556 38.2851 53.3012 38.1799 53.1849 38.1577C53.0686 38.1411 52.9024 38.0137 52.9024 38.0137C52.9024 38.0137 52.8692 37.9583 52.9744 37.8919M53.2015 37.3269C53.0852 37.3103 52.919 37.1829 52.919 37.1829C52.919 37.1829 52.8858 37.1275 52.991 37.061C53.0963 36.9946 53.2569 37.0278 53.2569 37.0278C53.2569 37.0278 53.3122 37.0389 53.3566 37.0832C53.4064 37.1275 53.5449 37.2826 53.556 37.3657C53.5671 37.4488 53.3123 37.3435 53.196 37.3214M53.412 34.7845C53.5504 34.8233 53.5782 34.8953 53.5172 34.9119C53.4452 34.9286 53.412 34.923 53.3621 34.923C53.2181 34.9175 53.2237 34.8621 53.0243 34.9618C52.8249 35.0615 52.9689 35.0172 52.6919 35.1169C52.415 35.2166 52.4814 34.9452 52.4814 34.9452C52.4814 34.9452 52.5036 34.8953 52.5424 34.7624C52.5811 34.6294 52.7362 34.7568 52.8636 34.7624C53.0797 34.7624 53.268 34.7568 53.4176 34.7956M52.6587 33.7377C52.6587 33.7377 52.703 33.7488 52.7418 33.782C52.7806 33.8152 52.8969 33.9426 52.9024 34.0146C52.9135 34.0866 52.703 33.998 52.6088 33.9814C52.5147 33.9648 52.3818 33.8595 52.3818 33.8595C52.3818 33.8595 52.3541 33.8152 52.4427 33.7598C52.5313 33.7044 52.6587 33.7321 52.6587 33.7321M52.0438 32.9235C52.1325 32.8681 52.2599 32.8958 52.2599 32.8958C52.2599 32.8958 52.3042 32.9068 52.343 32.9401C52.3817 32.9733 52.4981 33.1007 52.5036 33.1727C52.5147 33.2447 52.3042 33.1506 52.21 33.1395C52.1159 33.1229 51.9829 33.0232 51.9829 33.0232C51.9829 33.0232 51.9552 32.9788 52.0438 32.9235ZM51.8777 43.8739C51.922 43.8462 51.9885 43.8629 51.9885 43.8629C51.9885 43.8629 52.0107 43.8629 52.0328 43.885C52.055 43.9016 52.1159 43.9681 52.1214 44.0069C52.1214 44.0456 52.0162 43.9958 51.9663 43.9902C51.9165 43.9792 51.8445 43.9293 51.8445 43.9293C51.8445 43.9293 51.8334 43.9072 51.8777 43.8795M45.098 35.8314C45.0426 35.8702 45.0039 35.8923 44.9485 35.9311C44.8543 35.9976 44.7879 36.1693 44.7214 36.1139C44.6549 36.0585 44.6937 35.8757 44.6937 35.8757C44.6937 35.8757 44.738 35.7372 44.8156 35.5988C44.8931 35.4603 45.0039 35.4603 45.0039 35.4603C45.1147 35.4547 45.2863 35.5268 45.2919 35.6874C45.303 35.848 45.1756 35.776 45.0925 35.8314M46.4828 36.3576C46.4828 36.3576 46.4163 36.3798 46.3942 36.2524C46.372 36.1305 46.4717 36.1139 46.4717 36.1139C46.4717 36.1139 46.6656 36.0142 46.6822 36.1416C46.6932 36.269 46.4883 36.3576 46.4883 36.3576M48.294 34.0479C48.294 34.0479 48.0725 34.4079 47.7734 34.5408C47.4743 34.6738 47.2582 34.7458 46.6933 34.7901C46.6102 34.7956 46.6379 34.7291 46.6379 34.7291C46.6379 34.7291 47.297 34.5464 47.6737 34.3414C47.8841 34.2306 48.1112 34.0645 48.1832 34.0091C48.4103 33.8263 48.2885 34.0479 48.2885 34.0479M36.917 48.6928C36.9115 48.7704 36.8118 48.9254 36.7841 48.9254C36.7564 48.9254 36.6844 48.7648 36.701 48.6873C36.7176 48.6097 36.7398 48.3605 36.8616 48.3993C36.9724 48.4325 36.9226 48.6153 36.917 48.6928ZM37.3601 46.7874C37.3601 46.7874 37.205 47.1031 37.1497 46.9813C37.0943 46.8594 37.2051 46.6379 37.2051 46.6379C37.3491 46.5215 37.3879 46.3554 37.4488 46.4163C37.5152 46.4772 37.3546 46.7874 37.3546 46.7874M39.465 43.4862C39.3209 43.6524 38.8446 44.5441 38.7283 44.4001C38.6286 44.2783 39.1769 43.4419 39.3043 43.2591C39.4261 43.0763 39.5259 43.1096 39.5259 43.1096C39.5536 43.1096 39.5536 43.1483 39.5536 43.1483C39.5536 43.1483 39.6145 43.32 39.465 43.4862ZM40.966 42.0738C40.966 42.1624 40.7333 42.1458 40.7333 42.1458C40.7333 42.1458 40.3899 42.2178 40.4509 42.1015C40.5118 41.9852 40.7555 41.9353 40.7555 41.9353C40.9383 41.9741 40.9715 41.9852 40.966 42.0738ZM42.0959 44.5275C41.9519 44.6715 41.891 44.4721 41.6639 44.2284C41.4368 43.9847 41.4922 43.7909 41.4922 43.7909C41.5088 43.7853 41.5199 43.7909 41.5199 43.7909L41.5642 43.8075L41.6417 43.8462L41.7027 43.8961C41.7027 43.8961 41.7691 43.9736 41.8633 44.0623C41.9574 44.1509 42.1403 44.4777 42.0959 44.522M39.4871 49.579C39.4261 49.5846 39.3763 49.4793 39.3763 49.4793C39.3763 49.4793 39.2489 49.2744 39.1991 49.1248C39.1548 48.9919 39.1326 48.7648 39.1326 48.7648C39.1326 48.7648 39.0938 48.4823 39.1049 48.3771C39.1215 48.2442 39.116 48.1278 39.1381 48.0614C39.1603 47.9949 39.2157 48.006 39.2157 48.006C39.3099 48.006 39.3098 48.0891 39.3098 48.0891V48.1334C39.3098 48.1334 39.3099 48.438 39.332 48.6817C39.3376 48.7593 39.5259 49.5015 39.5259 49.5015C39.5259 49.5015 39.5369 49.5735 39.4815 49.579M39.4483 46.0286C39.3265 46.2114 39.2489 46.2169 39.2434 46.2058C39.2323 46.1947 39.2157 46.1172 39.3098 45.9178C39.404 45.7184 39.5092 45.7406 39.5092 45.7406C39.5369 45.7406 39.5425 45.7793 39.5425 45.7793C39.5425 45.7793 39.5702 45.8458 39.4483 46.0341M40.6502 53.1073C40.6835 53.0353 40.905 53.2126 40.905 53.2126C40.9992 53.2347 41.0657 53.3843 41.0657 53.3843C41.0657 53.3843 41.1044 53.4951 40.9992 53.5449C40.894 53.5892 40.8275 53.4895 40.8275 53.4895C40.8275 53.4895 40.6115 53.1794 40.6447 53.1073M42.24 47.9395C42.0018 47.8952 41.4977 47.5019 41.2928 47.3967C41.0879 47.2915 40.7555 47.2527 40.8995 47.1308C40.9272 47.1087 40.9327 47.0865 40.9715 47.0865C41.0103 47.0865 41.1488 47.1419 41.1599 47.1419C41.1709 47.1419 41.5199 47.2915 41.5365 47.297C41.5476 47.297 41.747 47.3856 41.891 47.4687C42.035 47.5518 42.2621 47.7124 42.2621 47.7124L42.3618 47.7955C42.3618 47.7955 42.4892 47.9783 42.2455 47.9395M44.3004 44.5774C44.3004 44.5774 44.0069 44.9651 43.8462 45.1977C43.6247 45.5135 43.3644 46.012 43.309 45.9676C43.2536 45.9233 43.5416 45.375 43.6912 45.0814C43.8684 44.7325 44.1176 44.5441 44.2063 44.5054C44.4278 44.4057 44.3004 44.5829 44.3004 44.5829M43.392 61.4988C43.392 61.4988 43.3921 61.5709 43.2757 61.6539C43.1539 61.737 43.1096 61.6872 43.0874 61.6872C43.0653 61.6872 42.9434 61.6207 42.96 61.5542C42.9711 61.4878 43.1594 61.4435 43.1594 61.4435C43.464 61.4158 43.392 61.4988 43.392 61.4988ZM46.0175 61.3991C45.8956 61.3881 45.8846 61.3548 45.8901 61.3382C45.8901 61.3161 45.9233 61.2939 46.0563 61.2884C46.1892 61.2828 46.1892 61.3493 46.1892 61.3493C46.1892 61.4047 46.1338 61.4158 46.0175 61.4047M49.0196 61.5653C48.7759 61.6318 48.6651 61.5985 48.4435 61.6096C48.2663 61.6207 48.1666 61.6373 47.9839 61.6373C47.6626 61.6373 47.6349 61.6595 47.1641 61.5099C47.0754 61.4822 46.9813 61.3825 47.009 61.3382C47.0367 61.2939 47.1087 61.305 47.1087 61.305C47.1087 61.305 47.6847 61.3991 48.0559 61.4213C48.3217 61.4379 48.4657 61.449 48.7371 61.4379C48.8867 61.4324 48.8091 61.4213 49.0473 61.4268C49.1415 61.4268 49.075 61.5487 49.0141 61.5653M50.6203 61.089C50.6203 61.089 50.5096 61.1443 50.4099 61.1554C50.3102 61.1665 50.36 61.0945 50.36 61.0945C50.36 61.0945 50.4209 60.9837 50.5206 60.9394C50.6203 60.8896 50.6702 60.9449 50.6702 60.9449C50.72 61.0059 50.648 61.0723 50.6259 61.089M51.8832 57.8431C51.7669 58.0979 51.7392 58.1755 51.706 58.4136C51.6728 58.6684 51.8168 59.383 51.5842 59.106C51.49 58.9952 51.418 58.4303 51.4789 58.1533C51.6008 57.5662 52.0882 57.3945 51.8832 57.8487M48.4602 68.1733C48.3549 68.2508 48.5543 68.4502 48.2441 68.4336C48.0669 68.4225 48.15 68.2563 48.1666 68.2231C48.1832 68.1954 48.2719 68.0791 48.2885 68.0569C48.3716 67.9406 48.4214 67.924 48.51 67.8742C48.5986 67.8188 48.6707 67.9517 48.6707 67.9517C48.6707 67.9517 48.715 68.0071 48.7094 68.068C48.7094 68.1289 48.5433 68.1179 48.4602 68.1788M50.2437 66.4783C50.2437 66.4783 50.1053 66.5891 50.0942 66.5891C50.0776 66.5891 49.9723 66.6722 49.9446 66.6168C49.9114 66.5614 49.9612 66.5005 49.9667 66.4894C49.9723 66.4783 50.0609 66.362 50.144 66.3177C50.2271 66.2734 50.2769 66.3177 50.2769 66.3177C50.3268 66.4285 50.2437 66.4783 50.2437 66.4783ZM51.0247 36.8506C51.0247 36.8506 50.9582 37.0777 50.8253 37.1164C50.6647 37.1663 50.0055 37.1829 50 37.133C49.9889 37.0832 50.7422 37.0223 51.0358 36.7232C51.1022 36.6567 51.0247 36.8561 51.0247 36.8561M50.8031 36.2967C50.853 36.2136 50.8198 36.4296 50.8198 36.4296C50.8198 36.4296 50.7754 36.6456 50.6591 36.7121C50.5096 36.7952 50.1274 36.9004 50.1052 36.8561C50.0831 36.8118 50.5816 36.6567 50.8031 36.2967ZM49.7452 33.7488C49.7452 33.7488 49.8228 33.7488 49.9114 33.8041C50.0056 33.8651 50.0775 34.0811 50.0775 34.0811C50.0775 34.0811 50.0942 34.1143 50.0166 34.1143C49.9612 34.1143 49.9668 34.0312 49.9169 33.9925C49.8505 33.9315 49.8006 33.9205 49.7231 33.8817C49.64 33.8485 49.5126 33.8983 49.5071 33.8097C49.496 33.7155 49.7452 33.7488 49.7452 33.7488ZM48.9753 34.3137C48.9753 34.3137 49.0141 34.2029 49.1526 34.1254C49.2966 34.0479 49.4738 34.0423 49.4738 34.0423C49.4738 34.0423 49.5735 34.0368 49.7009 34.1199C49.8283 34.2029 49.9225 34.4965 49.9225 34.4965C49.9225 34.4965 49.9501 34.6793 49.8726 34.7513C49.7895 34.8233 49.6621 34.6959 49.5845 34.6073C49.5015 34.5076 49.4461 34.4744 49.3353 34.4356C49.1969 34.3857 49.003 34.5297 48.9586 34.4356C48.942 34.3913 48.9698 34.3137 48.9698 34.3137M48.9199 36.6401C48.8091 36.6512 48.8922 36.5515 48.8922 36.5515C48.8922 36.5515 49.1858 36.4241 49.3685 36.3299C49.6621 36.1693 50.2493 35.5655 50.0942 35.8646C50.0222 36.0086 49.8228 36.1748 49.8228 36.1748C49.8228 36.1748 49.5901 36.5127 49.5348 36.557C49.3132 36.7342 49.0362 36.6345 48.9254 36.6456M46.5382 43.1982L46.5603 43.1705C46.5603 43.1705 47.0754 42.8326 47.862 42.9379C48.3328 43.0043 48.7981 43.4197 48.7316 43.4807C48.6651 43.5361 48.5543 43.4807 48.5377 43.4751C48.5156 43.4696 48.3993 43.4087 48.3605 43.3976C48.3217 43.3865 48.1057 43.3256 48.1057 43.3256C48.1057 43.3256 47.646 43.2259 47.3136 43.2425C46.9813 43.2536 46.6711 43.3754 46.6711 43.3754C46.6711 43.3754 46.5327 43.4474 46.4994 43.3533C46.4662 43.2591 46.5382 43.2037 46.5382 43.2037M47.7789 52.7252C46.6157 51.8279 45.1922 49.9945 45.3694 49.8338C45.519 49.7009 46.1006 50.5428 46.9536 51.4678C47.8675 52.4537 48.931 53.3788 48.9698 53.5006C49.0362 53.7056 48.2165 53.0686 47.7789 52.7307M50.432 40.0964C49.9446 40.9383 49.2633 41.5808 49.2633 41.5808C49.0307 41.7581 49.1747 41.4534 49.1747 41.4534C49.1747 41.4534 49.8338 40.545 50.1385 39.9081C50.3545 39.4594 50.4874 38.8501 50.6037 38.7172C50.853 38.4236 50.7256 39.5979 50.4376 40.1019M51.7946 49.3519C51.2906 48.7427 50.9139 48.0891 50.7976 47.2472C50.7699 47.0588 50.7644 46.793 50.9416 46.8206C51.0912 46.8428 51.0801 47.1253 51.0856 47.1862C51.1299 47.6736 51.3349 48.1721 51.7115 48.7593C52.2433 49.5901 53.0796 50.2382 53.0464 50.277C52.9467 50.3822 52.1048 49.7175 51.8002 49.3464M52.6919 64.3846C52.6919 64.3846 52.2543 64.8776 51.9497 65.1601C51.6617 65.4259 51.1742 65.8081 51.1742 65.8081C51.1742 65.8081 51.141 65.8358 51.1133 65.8137C51.0856 65.7915 51.1133 65.7638 51.1133 65.7638C51.1133 65.7638 51.1189 65.7472 51.1189 65.7361C51.1189 65.7251 51.13 65.714 51.13 65.7084C51.13 65.6974 51.1632 65.6641 51.1632 65.6641C51.1632 65.6641 51.1853 65.6309 51.1964 65.6198C51.202 65.6087 51.2297 65.5644 51.2297 65.5644L51.3293 65.4536L51.5564 65.2321L51.7891 65.0105L52.1657 64.645C52.1657 64.645 52.3097 64.4954 52.354 64.4622C52.3983 64.4234 52.4316 64.3902 52.4925 64.3569C52.559 64.3237 52.6421 64.2738 52.6809 64.3071C52.7141 64.3403 52.6809 64.3791 52.6809 64.3791M52.991 52.6476C52.7639 52.8082 52.6808 52.7861 52.5424 52.9412C52.3817 53.124 52.3374 53.7443 52.1934 53.4951C52.0439 53.2347 52.138 52.8858 52.3928 52.6199C52.7141 52.2765 53.3732 52.3817 52.991 52.6532M53.7831 63.7753C53.8828 63.7421 53.9271 63.7643 53.9271 63.7643C53.9271 63.7643 53.9548 63.8086 53.9548 63.8307C53.9548 63.8529 53.8274 64.0412 53.7499 64.0301C53.6723 64.0191 53.689 63.9138 53.689 63.9138C53.689 63.9138 53.6834 63.8141 53.7775 63.7753M56.691 56.9071C56.5359 56.8074 56.7797 56.5027 56.7797 56.2424C56.7797 56.0374 56.7354 55.8879 56.7409 55.7162C56.7409 55.5445 56.9182 55.4946 56.9182 55.4946C56.9459 55.4946 57.0234 55.5279 57.1065 55.7051C57.1896 55.8824 56.9569 57.0732 56.691 56.9071ZM61.8533 52.0716C61.8257 52.7861 61.7868 53.2901 61.3659 53.833C60.8563 54.4865 59.9756 55.1734 60.1695 54.6361C60.2858 54.3148 61.0724 53.9105 61.3715 53.0132C61.5487 52.4814 61.5819 51.9608 61.5819 51.9608L61.5543 50.9361C61.5543 50.9361 61.5376 50.8475 61.532 50.7311C61.5764 50.6037 61.6539 50.6979 61.6539 50.6979L61.6816 50.7533C61.6816 50.7533 61.8755 51.5509 61.8589 52.066" fill="#231815"/>
<path d="M49.2578 31.9929C49.3907 32.0594 49.4461 32.1148 49.5791 32.148C49.7065 32.1812 49.8615 32.2699 49.9058 32.1646C49.9502 32.0594 49.8837 31.9264 49.8062 31.8046C49.6732 31.5886 49.6067 31.5387 49.4129 31.2396C49.3685 31.1731 49.3353 31.1067 49.2799 31.0956C49.2799 31.0956 49.2578 31.3227 49.2024 31.4556C49.1525 31.5775 49.0196 31.6606 49.0307 31.7437C49.0418 31.8267 49.1249 31.9209 49.2578 31.9929Z" fill="#231815"/>
</svg>
