<svg width="22" height="21" viewBox="0 0 22 21" fill="none" xmlns="http://www.w3.org/2000/svg">
<path d="M15.0667 8.63231L19.5617 4.2L18.8333 3.48305L15.0667 7.19086L13.1667 5.34581L12.4383 6.07031L15.0667 8.63231ZM0 21V19.6875H14.6667V21H0ZM16.0037 11.8125C14.3448 11.8125 12.9294 11.237 11.7577 10.0859C10.5859 8.93506 10 7.54305 10 5.90986C10 4.27689 10.5847 2.88367 11.754 1.7302C12.9231 0.576734 14.3372 0 15.9963 0C17.6552 0 19.0706 0.575531 20.2423 1.72659C21.4141 2.87744 22 4.26945 22 5.90264C22 7.53561 21.4153 8.92883 20.246 10.0823C19.0769 11.2358 17.6628 11.8125 16.0037 11.8125ZM0 10.5V9.1875H7.16933C7.25644 9.43316 7.353 9.6612 7.459 9.87164C7.565 10.0819 7.68556 10.2913 7.82067 10.5H0ZM0 15.75V14.4375H12.354C12.7111 14.5924 13.0846 14.7275 13.4743 14.8427C13.8641 14.958 14.2616 15.0426 14.6667 15.0964V15.75H0Z" fill="black"/>
</svg>
