<svg width="22" height="19" viewBox="0 0 22 19" fill="none" xmlns="http://www.w3.org/2000/svg">
<path d="M0 12.2143V10.8571H9.625V12.2143H0ZM0 6.78571V5.42857H15.125V6.78571H0ZM0 1.35714V0H15.125V1.35714H0ZM11.3173 19V16.0014L18.6498 8.79802C18.7855 8.6813 18.9255 8.59513 19.0699 8.53948C19.2143 8.48384 19.3586 8.45602 19.503 8.45602C19.6604 8.45602 19.8151 8.4852 19.9671 8.54355C20.1192 8.60168 20.2574 8.68911 20.3816 8.80582L21.6535 10.0873C21.7665 10.2212 21.8524 10.3604 21.9113 10.505C21.9704 10.6493 22 10.7936 22 10.9379C22 11.0824 21.9762 11.2282 21.9285 11.3752C21.8811 11.5223 21.7894 11.6627 21.6535 11.7966L14.3557 19H11.3173ZM19.5119 12.2353L20.7838 10.9379L19.5119 9.65675L18.2057 10.946L19.5119 12.2353Z" fill="black"/>
</svg>
