<svg width="22" height="22" viewBox="0 0 22 22" fill="none" xmlns="http://www.w3.org/2000/svg">
<path d="M2.22131 22C1.58835 22 1.0599 21.788 0.635938 21.3641C0.211979 20.9401 0 20.4116 0 19.7787V2.22131C0 1.58835 0.211979 1.0599 0.635938 0.635938C1.0599 0.211979 1.58835 0 2.22131 0H19.7787C20.4116 0 20.9401 0.211979 21.3641 0.635938C21.788 1.0599 22 1.58835 22 2.22131V19.7787C22 20.4116 21.788 20.9401 21.3641 21.3641C20.9401 21.788 20.4116 22 19.7787 22H2.22131ZM4.8125 17.1875H17.3989L13.5121 12.0048L9.91581 16.5529L7.50956 13.6441L4.8125 17.1875Z" fill="black"/>
</svg>
