<svg width="22" height="16" viewBox="0 0 22 16" fill="none" xmlns="http://www.w3.org/2000/svg">
<path d="M0 13.7901V0H21.2224V3.77907H20.0434L15.0779 8.61883H4.12658V9.76801H13.8989L9.77234 13.7901H0ZM4.12658 5.1713H10.0217V4.02212H4.12658V5.1713ZM12.1531 16V15.0939L19.3587 8.07067L20.2884 8.9768L13.0827 16H12.1531ZM20.9504 8.28729L20.0207 7.38117L20.9433 6.4828C21.0288 6.39967 21.1227 6.35811 21.2251 6.35811C21.3277 6.35811 21.4205 6.39862 21.5036 6.47964L21.8753 6.84192C21.9584 6.92485 22 7.01592 22 7.11513C22 7.21454 21.9574 7.3058 21.8721 7.38892L20.9504 8.28729Z" fill="black"/>
</svg>
