<svg width="22" height="22" viewBox="0 0 22 22" fill="none" xmlns="http://www.w3.org/2000/svg">
<path d="M9.075 15.8232L17.8698 7.02831L16.8967 6.05516L9.075 13.8768L5.15625 9.95809L4.18309 10.9313L9.075 15.8232ZM2.22131 22C1.58835 22 1.0599 21.788 0.635938 21.3641C0.211979 20.9401 0 20.4116 0 19.7787V2.22131C0 1.58835 0.211979 1.0599 0.635938 0.635938C1.0599 0.211979 1.58835 0 2.22131 0H19.7787C20.4116 0 20.9401 0.211979 21.3641 0.635938C21.788 1.0599 22 1.58835 22 2.22131V19.7787C22 20.4116 21.788 20.9401 21.3641 21.3641C20.9401 21.788 20.4116 22 19.7787 22H2.22131Z" fill="black"/>
</svg>
