<svg width="22" height="22" viewBox="0 0 22 22" fill="none" xmlns="http://www.w3.org/2000/svg">
<path d="M11 15.8889C12.3618 15.8889 13.517 15.4145 14.4656 14.4656C15.4145 13.517 15.8889 12.3618 15.8889 11C15.8889 9.63824 15.4145 8.48304 14.4656 7.53439C13.517 6.58554 12.3618 6.11111 11 6.11111C9.63824 6.11111 8.48304 6.58554 7.53439 7.53439C6.58554 8.48304 6.11111 9.63824 6.11111 11C6.11111 12.3618 6.58554 13.517 7.53439 14.4656C8.48304 15.4145 9.63824 15.8889 11 15.8889ZM11.004 22C9.48292 22 8.05281 21.7114 6.71367 21.1341C5.37472 20.5568 4.20994 19.7733 3.21933 18.7837C2.22872 17.7941 1.44456 16.6304 0.866861 15.2924C0.288954 13.9547 0 12.5252 0 11.004C0 9.48292 0.288648 8.05281 0.865944 6.71367C1.44324 5.37472 2.22669 4.20994 3.21628 3.21933C4.20587 2.22872 5.36963 1.44456 6.70756 0.866861C8.04528 0.288954 9.47477 0 10.996 0C12.5171 0 13.9472 0.288649 15.2863 0.865945C16.6253 1.44324 17.7901 2.22669 18.7807 3.21628C19.7713 4.20587 20.5554 5.36963 21.1331 6.70756C21.711 8.04528 22 9.47477 22 10.996C22 12.5171 21.7114 13.9472 21.1341 15.2863C20.5568 16.6253 19.7733 17.7901 18.7837 18.7807C17.7941 19.7713 16.6304 20.5554 15.2924 21.1331C13.9547 21.711 12.5252 22 11.004 22Z" fill="black"/>
</svg>
