<svg width="22" height="11" viewBox="0 0 22 11" fill="none" xmlns="http://www.w3.org/2000/svg">
<path d="M5.02391 1.53381V0.158812H22V1.53381H5.02391ZM5.02391 6.1875V4.8125H22V6.1875H5.02391ZM5.02391 10.8412V9.46619H22V10.8412H5.02391ZM0.846312 1.69228C0.606375 1.69228 0.405396 1.60864 0.243375 1.44134C0.0811251 1.27405 0 1.06688 0 0.819843C0 0.587468 0.0811251 0.392791 0.243375 0.235812C0.405396 0.0786037 0.606375 0 0.846312 0C1.08602 0 1.28689 0.0786037 1.44891 0.235812C1.61116 0.392791 1.69228 0.587468 1.69228 0.819843C1.69228 1.06688 1.61116 1.27405 1.44891 1.44134C1.28689 1.60864 1.08602 1.69228 0.846312 1.69228ZM0.846312 6.31984C0.606375 6.31984 0.405396 6.24124 0.243375 6.08403C0.0811251 5.92682 0 5.73215 0 5.5C0 5.23371 0.0811251 5.02173 0.243375 4.86406C0.405396 4.7064 0.606375 4.62756 0.846312 4.62756C1.08602 4.62756 1.28689 4.7064 1.44891 4.86406C1.61116 5.02173 1.69228 5.23371 1.69228 5.5C1.69228 5.73215 1.61116 5.92682 1.44891 6.08403C1.28689 6.24124 1.08602 6.31984 0.846312 6.31984ZM0.846312 11C0.606375 11 0.405396 10.9164 0.243375 10.7491C0.0811251 10.5818 0 10.3746 0 10.1276C0 9.89519 0.0811251 9.70051 0.243375 9.54353C0.405396 9.38632 0.606375 9.30772 0.846312 9.30772C1.08602 9.30772 1.28689 9.38632 1.44891 9.54353C1.61116 9.70051 1.69228 9.89519 1.69228 10.1276C1.69228 10.3746 1.61116 10.5818 1.44891 10.7491C1.28689 10.9164 1.08602 11 0.846312 11Z" fill="black"/>
</svg>
