<svg width="22" height="22" viewBox="0 0 22 22" fill="none" xmlns="http://www.w3.org/2000/svg">
<path d="M0 22V18.536L18.1235 0.393938C18.2645 0.268355 18.42 0.171302 18.59 0.102781C18.7603 0.0342601 18.9378 0 19.1225 0C19.3072 0 19.4862 0.0291034 19.6594 0.0873117C19.8324 0.14552 19.9922 0.250365 20.1386 0.401844L21.6061 1.87756C21.7575 2.02377 21.8611 2.18419 21.9168 2.35881C21.9723 2.53367 22 2.70841 22 2.88303C22 3.06934 21.9686 3.24764 21.9058 3.41791C21.843 3.58795 21.7431 3.74344 21.6061 3.88438L3.46397 22H0ZM18.5677 4.93419L20.625 2.90331L19.0967 1.375L17.0658 3.43234L18.5677 4.93419Z" fill="black"/>
</svg>
