<svg width="32" height="32" viewBox="0 0 32 32" fill="none" xmlns="http://www.w3.org/2000/svg">
<path d="M6.34406 25.1398C7.75916 24.1243 9.25749 23.3085 10.8557 22.7259C12.4373 22.1265 14.1687 21.8435 16.0166 21.8435C17.8646 21.8435 19.5794 22.1432 21.1776 22.7259C22.7592 23.3252 24.2741 24.1243 25.6892 25.1398C26.788 24.0078 27.6704 22.6593 28.3363 21.111C29.0022 19.5627 29.3352 17.8646 29.3352 16.0166C29.3352 12.3208 28.0366 9.1909 25.4395 6.59378C22.8424 3.99667 19.6959 2.69811 16.0166 2.69811C12.3374 2.69811 9.1909 3.99667 6.59378 6.59378C3.99667 9.1909 2.69811 12.3374 2.69811 16.0166C2.69811 17.8646 3.03108 19.5627 3.697 21.111C4.36293 22.6593 5.24528 24.0078 6.34406 25.1398ZM16 16.8491C14.6016 16.8491 13.4195 16.3663 12.4539 15.4007C11.4883 14.4351 11.0055 13.2531 11.0055 11.8546C11.0055 10.4562 11.4883 9.27414 12.4539 8.30855C13.4195 7.34295 14.6016 6.86016 16 6.86016C17.3984 6.86016 18.5805 7.34295 19.5461 8.30855C20.5117 9.27414 20.9945 10.4562 20.9945 11.8546C20.9945 13.2531 20.5117 14.4351 19.5461 15.4007C18.5805 16.3663 17.3984 16.8491 16 16.8491ZM16 31C13.9023 31 11.9545 30.6171 10.1232 29.8346C8.2919 29.0522 6.71032 27.9867 5.36182 26.6382C4.01332 25.2897 2.94784 23.7081 2.16537 21.8768C1.38291 20.0622 1 18.0977 1 16C1 13.9023 1.38291 11.9545 2.16537 10.1232C2.94784 8.2919 4.01332 6.71032 5.36182 5.36182C6.71032 4.01332 8.2919 2.94784 10.1232 2.16537C11.9378 1.38291 13.9023 1 16 1C18.0977 1 20.0455 1.38291 21.8768 2.16537C23.6915 2.94784 25.2897 4.01332 26.6382 5.36182C27.9867 6.71032 29.0522 8.2919 29.8346 10.1232C30.6171 11.9378 31 13.9023 31 16C31 18.0977 30.6171 20.0455 29.8346 21.8768C29.0522 23.6915 27.9867 25.2897 26.6382 26.6382C25.2897 27.9867 23.7081 29.0522 21.8768 29.8346C20.0622 30.6171 18.0977 31 16 31Z" fill="black"/>
</svg>
